HIERARCHY
ROOT joint_Root
{
	OFFSET 0.0 0.0 0.0
	CHANNELS 6 Xposition Yposition Zposition Zrotation Xrotation Yrotation 
	JOINT Hips
	{
		OFFSET 4.5925 91.4895 -427.239
		CHANNELS 6 Xposition Yposition Zposition Zrotation Xrotation Yrotation 
		JOINT Spine
		{
			OFFSET 15.7357 0.0 0.0
			CHANNELS 6 Xposition Yposition Zposition Zrotation Xrotation Yrotation 
			JOINT Chest
			{
				OFFSET 8.98455 -0.406207 0.0
				CHANNELS 6 Xposition Yposition Zposition Zrotation Xrotation Yrotation 
				JOINT Neck
				{
					OFFSET 16.3773 0.0 0.0
					CHANNELS 6 Xposition Yposition Zposition Zrotation Xrotation Yrotation 
					JOINT Head
					{
						OFFSET 6.45672 0.0 0.0
						CHANNELS 6 Xposition Yposition Zposition Zrotation Xrotation Yrotation 
						End Site
						{
							OFFSET 0.0 0.0 0.0
						}
					}
				}
				JOINT Shoulder_L
				{
					OFFSET 12.9942 -0.242716 4.98039
					CHANNELS 6 Xposition Yposition Zposition Zrotation Xrotation Yrotation 
					JOINT UpperArm_L
					{
						OFFSET 5.34809 0.0 0.0
						CHANNELS 6 Xposition Yposition Zposition Zrotation Xrotation Yrotation 
						JOINT LowerArm_L
						{
							OFFSET 24.3286 1.87007e-05 0.0
							CHANNELS 6 Xposition Yposition Zposition Zrotation Xrotation Yrotation 
							JOINT Hand_L
							{
								OFFSET 22.2916 0.0 0.0
								CHANNELS 6 Xposition Yposition Zposition Zrotation Xrotation Yrotation 
								End Site
								{
									OFFSET 0.0 0.0 0.0
								}
							}
						}
					}
				}
				JOINT Shoulder_R
				{
					OFFSET 12.9945 -0.242716 -4.98039
					CHANNELS 6 Xposition Yposition Zposition Zrotation Xrotation Yrotation 
					JOINT UpperArm_R
					{
						OFFSET -5.34813 0.0 0.0
						CHANNELS 6 Xposition Yposition Zposition Zrotation Xrotation Yrotation 
						JOINT LowerArm_R
						{
							OFFSET -24.3289 0.000322201 0.0
							CHANNELS 6 Xposition Yposition Zposition Zrotation Xrotation Yrotation 
							JOINT Hand_R
							{
								OFFSET -22.2915 -0.000108084 0.0
								CHANNELS 6 Xposition Yposition Zposition Zrotation Xrotation Yrotation 
								End Site
								{
									OFFSET 0.0 0.0 0.0
								}
							}
						}
					}
				}
			}
		}
		JOINT UpperLeg_L
		{
			OFFSET -2.19248 -6.46944 0.0
			CHANNELS 6 Xposition Yposition Zposition Zrotation Xrotation Yrotation 
			JOINT LowerLeg_L
			{
				OFFSET 39.0811 0.0 -1.23785e-05
				CHANNELS 6 Xposition Yposition Zposition Zrotation Xrotation Yrotation 
				JOINT Foot_L
				{
					OFFSET 40.9854 0.0 -1.26872e-05
					CHANNELS 6 Xposition Yposition Zposition Zrotation Xrotation Yrotation 
					JOINT Toes_L
					{
						OFFSET 11.7543 0.0 0.0
						CHANNELS 6 Xposition Yposition Zposition Zrotation Xrotation Yrotation 
						End Site
						{
							OFFSET 0.0 0.0 0.0
						}
					}
				}
			}
		}
		JOINT UpperLeg_R
		{
			OFFSET -2.19251 6.46944 0.0
			CHANNELS 6 Xposition Yposition Zposition Zrotation Xrotation Yrotation 
			JOINT LowerLeg_R
			{
				OFFSET -39.0811 -0.00228153 -0.0401928
				CHANNELS 6 Xposition Yposition Zposition Zrotation Xrotation Yrotation 
				JOINT Foot_R
				{
					OFFSET -40.9854 0.0 0.0
					CHANNELS 6 Xposition Yposition Zposition Zrotation Xrotation Yrotation 
					JOINT Toes_R
					{
						OFFSET -11.7543 0.0 0.0
						CHANNELS 6 Xposition Yposition Zposition Zrotation Xrotation Yrotation 
						End Site
						{
							OFFSET 0.0 0.0 0.0
						}
					}
				}
			}
		}
	}
}
MOTION
Frames:	8
Frame Time:	0.0333333
0.000000 0.000000 0.000000 0.000000 0.000000 -0.000000 -0.812477 90.533100 -5.926620 89.265200 -1.329270 7.799980 15.735700 0.000005 -0.000001 88.584000 77.883700 -89.291900 8.984550 -0.406207 -0.000000 16.456200 -0.642980 -1.324670 16.377300 -0.000001 -0.000001 6.863600 -2.765910 1.845840 6.456720 -0.000001 -0.000000 -12.248800 -1.779940 1.965870 12.994200 -0.242716 4.980390 -90.033300 0.113450 -73.647000 5.348090 -0.000007 -0.000001 -72.930600 -14.840300 -70.984000 24.328600 0.000019 0.000005 41.682500 -12.248500 -103.402000 22.291600 -0.000001 0.000005 38.273300 4.828030 10.784000 12.994500 -0.242716 -4.980390 89.460900 2.962550 -79.682300 -5.348130 -0.000001 -0.000004 -67.198400 -17.820700 -71.747100 -24.328900 0.000322 -0.000009 24.828100 -9.345540 -109.340000 -22.291500 -0.000108 -0.000004 42.910800 5.240650 1.677980 -2.192480 -6.469440 -0.000000 -175.883000 -10.219900 -8.709020 39.081100 -0.000007 -0.000012 -0.201852 0.299973 33.936900 40.985400 -0.000006 -0.000013 0.557350 5.121520 -67.490200 11.754300 -0.000000 0.000003 -0.000095 -0.000980 -16.615200 -2.192510 6.469440 -0.000001 177.460000 19.115300 172.911000 -39.081100 -0.002282 -0.040193 -0.073502 0.116282 33.442300 -40.985400 0.000008 0.000006 6.229500 11.478400 -69.330900 -11.754300 -0.000006 -0.000006 -0.002732 -0.037529 -18.099300
0.000000 0.000000 0.000000 0.000000 0.000000 -0.000000 -0.836335 90.524600 -6.004060 89.258500 -1.339440 7.855230 15.735700 0.000005 -0.000001 88.526200 77.878600 -89.245300 8.984550 -0.406207 -0.000000 16.465700 -0.668195 -1.343290 16.377300 -0.000001 -0.000001 6.855560 -2.767610 1.827120 6.456720 -0.000001 -0.000000 -12.261500 -1.768120 1.887830 12.994200 -0.242716 4.980390 -90.003800 0.012911 -73.641900 5.348090 -0.000007 -0.000001 -69.532700 -13.660800 -71.962900 24.328600 0.000019 0.000005 42.182700 -12.369500 -103.300000 22.291600 -0.000001 0.000005 38.104600 4.834090 10.668000 12.994500 -0.242716 -4.980390 89.478500 2.876530 -79.719600 -5.348130 -0.000001 -0.000004 -63.850700 -16.778000 -72.012000 -24.328900 0.000322 -0.000009 25.057000 -9.550800 -109.540000 -22.291500 -0.000108 -0.000004 42.623300 5.243550 1.602340 -2.192480 -6.469440 -0.000000 -175.858000 -10.216300 -8.736110 39.081100 -0.000007 -0.000012 -0.202387 0.300266 33.981300 40.985400 -0.000006 -0.000013 0.544019 5.120800 -67.449300 11.754300 -0.000000 0.000003 -0.000094 -0.000979 -16.615100 -2.192510 6.469440 -0.000001 177.484000 19.112100 172.890000 -39.081100 -0.002282 -0.040193 -0.075875 0.119712 33.477800 -40.985400 0.000008 0.000006 6.167010 11.463600 -69.275800 -11.754300 -0.000006 -0.000006 -0.002643 -0.036490 -18.057000
0.000000 0.000000 0.000000 0.000000 0.000000 -0.000000 -0.852429 90.519800 -6.067970 89.256300 -1.397370 7.951230 15.735700 0.000005 -0.000001 88.559100 77.862400 -89.274800 8.984550 -0.406207 -0.000000 16.498400 -0.655218 -1.338260 16.377300 -0.000001 -0.000001 6.880560 -2.767740 1.773600 6.456720 -0.000001 -0.000000 -12.297900 -1.800660 1.806530 12.994200 -0.242716 4.980390 -89.964000 -0.123117 -73.693700 5.348090 -0.000007 -0.000001 -66.231000 -12.693200 -72.823900 24.328600 0.000019 0.000005 42.395700 -12.488300 -103.325000 22.291600 -0.000001 0.000005 37.808000 4.829980 10.746800 12.994500 -0.242716 -4.980390 89.496800 2.783390 -79.747400 -5.348130 -0.000001 -0.000004 -60.429200 -15.792900 -72.300300 -24.328900 0.000322 -0.000009 25.499900 -9.830990 -109.696000 -22.291500 -0.000108 -0.000004 42.195700 5.245150 1.560310 -2.192480 -6.469440 -0.000000 -175.826000 -10.265000 -8.682170 39.081100 -0.000007 -0.000012 -0.199921 0.296357 34.003700 40.985400 -0.000006 -0.000013 0.535366 5.118860 -67.423100 11.754300 -0.000000 0.000003 -0.000096 -0.000998 -16.615900 -2.192510 6.469440 -0.000001 177.479000 19.102000 172.925000 -39.081100 -0.002282 -0.040193 -0.077414 0.121924 33.503000 -40.985400 0.000008 0.000006 6.175900 11.516800 -69.241500 -11.754300 -0.000006 -0.000006 -0.002705 -0.037220 -18.086700
0.000000 0.000000 0.000000 0.000000 0.000000 -0.000000 -0.848915 90.513400 -6.139420 89.242300 -1.464630 8.009280 15.735700 0.000005 -0.000001 88.584100 77.844900 -89.292700 8.984550 -0.406207 -0.000000 16.533700 -0.645277 -1.325390 16.377300 -0.000001 -0.000001 6.797930 -2.792400 1.748110 6.456720 -0.000001 -0.000000 -12.262500 -1.780930 1.752950 12.994200 -0.242716 4.980390 -89.923500 -0.261001 -73.666800 5.348090 -0.000007 -0.000001 -63.011500 -11.861500 -73.679000 24.328600 0.000019 0.000005 42.476500 -12.621100 -103.423000 22.291600 -0.000001 0.000005 37.723500 4.825810 10.826600 12.994500 -0.242716 -4.980390 89.506100 2.721420 -79.710300 -5.348130 -0.000001 -0.000004 -56.950200 -14.836700 -72.640700 -24.328900 0.000322 -0.000009 25.687500 -10.014500 -109.877000 -22.291500 -0.000108 -0.000004 42.021900 5.243580 1.601600 -2.192480 -6.469440 -0.000000 -175.806000 -10.275400 -8.687610 39.081100 -0.000007 -0.000012 -0.199149 0.294764 34.044200 40.985400 -0.000006 -0.000013 0.526229 5.074990 -67.396500 11.754300 -0.000000 0.000003 -0.000096 -0.000996 -16.615800 -2.192510 6.469440 -0.000001 177.491000 19.051800 172.910000 -39.081100 -0.002282 -0.040193 -0.078648 0.123661 33.530100 -40.985400 0.000008 0.000006 6.151330 11.555000 -69.191800 -11.754300 -0.000006 -0.000006 -0.002771 -0.037981 -18.117600
0.000000 0.000000 0.000000 0.000000 0.000000 -0.000000 -0.855044 90.509300 -6.203080 89.238800 -1.529740 8.071850 15.735700 0.000005 -0.000001 88.583900 77.837500 -89.283200 8.984550 -0.406207 -0.000000 16.548700 -0.645082 -1.306670 16.377300 -0.000001 -0.000001 6.814140 -2.797040 1.717410 6.456720 -0.000001 -0.000000 -12.289800 -1.754230 1.748780 12.994200 -0.242716 4.980390 -89.899600 -0.342300 -73.648500 5.348090 -0.000007 -0.000001 -59.754300 -11.220000 -74.357900 24.328600 0.000019 0.000005 42.583400 -12.829700 -103.584000 22.291600 -0.000001 0.000005 37.598600 4.839180 10.569700 12.994500 -0.242716 -4.980390 89.518300 2.660820 -79.734900 -5.348130 -0.000001 -0.000004 -53.527300 -14.049900 -72.912100 -24.328900 0.000322 -0.000009 25.501800 -10.115600 -110.213000 -22.291500 -0.000108 -0.000004 41.467400 5.254380 1.316550 -2.192480 -6.469440 -0.000000 -175.782000 -10.336400 -8.670750 39.081100 -0.000007 -0.000012 -0.198467 0.293515 34.065900 40.985400 -0.000006 -0.000013 0.529299 5.091120 -67.367400 11.754300 -0.000000 0.000003 -0.000096 -0.000998 -16.615900 -2.192510 6.469440 -0.000001 177.494000 19.048900 172.917000 -39.081100 -0.002282 -0.040193 -0.080241 0.125950 33.554200 -40.985400 0.000008 0.000006 6.177400 11.592200 -69.165600 -11.754300 -0.000006 -0.000006 -0.002728 -0.037487 -18.097600
0.000000 0.000000 0.000000 0.000000 0.000000 -0.000000 -0.854078 90.511800 -6.270750 89.225100 -1.566770 8.099300 15.735700 0.000005 -0.000001 88.588300 77.839400 -89.273900 8.984550 -0.406207 -0.000000 16.545000 -0.642086 -1.279530 16.377300 -0.000001 -0.000001 6.801660 -2.783410 1.747680 6.456720 -0.000001 -0.000000 -12.257900 -1.753710 1.715900 12.994200 -0.242716 4.980390 -89.868900 -0.446970 -73.648300 5.348090 -0.000007 -0.000001 -56.709900 -10.701000 -74.811400 24.328600 0.000019 0.000005 42.655700 -13.210000 -103.930000 22.291600 -0.000001 0.000005 37.152400 4.866540 10.038700 12.994500 -0.242716 -4.980390 89.535600 2.559550 -79.712000 -5.348130 -0.000001 -0.000004 -50.210800 -13.326100 -73.102100 -24.328900 0.000322 -0.000009 25.686000 -10.328700 -110.444000 -22.291500 -0.000108 -0.000004 41.039800 5.262600 1.096970 -2.192480 -6.469440 -0.000000 -175.766000 -10.369600 -8.687540 39.081100 -0.000007 -0.000012 -0.198608 0.293754 34.063000 40.985400 -0.000006 -0.000013 0.528645 5.077010 -67.317700 11.754300 -0.000000 0.000003 -0.000097 -0.001006 -16.616200 -2.192510 6.469440 -0.000001 177.507000 19.050200 172.897000 -39.081100 -0.002282 -0.040193 -0.080005 0.125707 33.530400 -40.985400 0.000008 0.000006 6.103890 11.655600 -69.080000 -11.754300 -0.000006 -0.000006 -0.002821 -0.038565 -18.141400
0.000000 0.000000 0.000000 0.000000 0.000000 -0.000000 -0.848659 90.511000 -6.328720 89.221100 -1.625370 8.123400 15.735700 0.000005 -0.000001 88.637100 77.840000 -89.309200 8.984550 -0.406207 -0.000000 16.544500 -0.620672 -1.255720 16.377300 -0.000001 -0.000001 6.793420 -2.777310 1.815830 6.456720 -0.000001 -0.000000 -12.238800 -1.722510 1.695640 12.994200 -0.242716 4.980390 -89.886300 -0.386229 -73.593900 5.348090 -0.000007 -0.000001 -53.553300 -10.257400 -75.240900 24.328600 0.000019 0.000005 42.886000 -13.497200 -104.106000 22.291600 -0.000001 0.000005 36.901600 4.883100 9.713130 12.994500 -0.242716 -4.980390 89.547500 2.479890 -79.655200 -5.348130 -0.000001 -0.000004 -47.014200 -12.707900 -73.308800 -24.328900 0.000322 -0.000009 26.026600 -10.580600 -110.608000 -22.291500 -0.000108 -0.000004 40.747300 5.268710 0.932801 -2.192480 -6.469440 -0.000000 -175.750000 -10.439100 -8.705560 39.081100 -0.000007 -0.000012 -0.199489 0.294984 34.069700 40.985400 -0.000006 -0.000013 0.541960 5.121080 -67.279000 11.754300 -0.000000 0.000003 -0.000089 -0.000933 -16.613400 -2.192510 6.469440 -0.000001 177.504000 19.053100 172.878000 -39.081100 -0.002282 -0.040193 -0.084034 0.131796 33.528400 -40.985400 0.000008 0.000006 6.055570 11.737200 -69.024700 -11.754300 -0.000006 -0.000006 -0.002875 -0.039175 -18.166200
0.000000 0.000000 0.000000 0.000000 0.000000 -0.000000 -0.848221 90.517800 -6.402630 89.215300 -1.641120 8.138070 15.735700 0.000005 -0.000001 88.562800 77.837900 -89.222200 8.984550 -0.406207 -0.000000 16.547900 -0.650837 -1.225800 16.377300 -0.000001 -0.000001 6.824630 -2.792760 1.816180 6.456720 -0.000001 -0.000000 -12.256000 -1.705300 1.738600 12.994200 -0.242716 4.980390 -89.867500 -0.449342 -73.571200 5.348090 -0.000007 -0.000001 -50.760300 -9.968790 -75.334300 24.328600 0.000019 0.000005 43.349600 -13.945400 -104.322000 22.291600 -0.000001 0.000005 36.723500 4.896870 9.440060 12.994500 -0.242716 -4.980390 89.563900 2.386290 -79.639500 -5.348130 -0.000001 -0.000004 -44.180500 -12.240200 -73.489600 -24.328900 0.000322 -0.000009 26.362700 -10.781000 -110.678000 -22.291500 -0.000108 -0.000004 40.515800 5.281010 0.598494 -2.192480 -6.469440 -0.000000 -175.748000 -10.489200 -8.722740 39.081100 -0.000007 -0.000012 -0.194400 0.287749 34.043000 40.985400 -0.000006 -0.000013 0.556388 5.148040 -67.220000 11.754300 -0.000000 0.000003 -0.000090 -0.000941 -16.613700 -2.192510 6.469440 -0.000001 177.512000 19.076300 172.852000 -39.081100 -0.002282 -0.040193 -0.085562 0.134291 33.491300 -40.985400 0.000008 0.000006 6.009130 11.798300 -68.938800 -11.754300 -0.000006 -0.000006 -0.002855 -0.038952 -18.157200
